<svg width="626.382" height="591.317" viewBox="0 0 165.73 156.453" xmlns="http://www.w3.org/2000/svg" xmlns:xlink="http://www.w3.org/1999/xlink" id="svg4401" overflow="hidden"><defs id="defs4398"><linearGradient x1="0" y1="767.839" x2="172.074" y2="767.839" gradientUnits="userSpaceOnUse" id="grad0-154" gradientTransform="scale(1.28817 0.776295)"><stop offset="0" stop-color="#2C5A9E"/><stop offset="1" stop-color="#285294"/></linearGradient><linearGradient x1="0" y1="767.839" x2="172.074" y2="767.839" gradientUnits="userSpaceOnUse" id="grad0-154-5" gradientTransform="scale(1.28817 0.776295)"><stop offset="0" stop-color="#2C5A9E"/><stop offset="1" stop-color="#285294"/></linearGradient><linearGradient x1="0" y1="767.839" x2="172.074" y2="767.839" gradientUnits="userSpaceOnUse" id="grad0-158" gradientTransform="scale(1.28817 0.776295)"><stop offset="0" stop-color="#217747"/><stop offset="1" stop-color="#1D6B41"/></linearGradient><linearGradient x1="0" y1="767.839" x2="172.074" y2="767.839" gradientUnits="userSpaceOnUse" id="grad0-162" gradientTransform="scale(1.28817 0.776295)"><stop offset="0" stop-color="#D44A27"/><stop offset="1" stop-color="#D04323"/></linearGradient><linearGradient x1="0" y1="767.839" x2="172.074" y2="767.839" gradientUnits="userSpaceOnUse" id="grad0-154-2" gradientTransform="scale(1.28817 0.776295)"><stop offset="0" stop-color="#2C5A9E"/><stop offset="1" stop-color="#285294"/></linearGradient><linearGradient x1="110.829" y1="729.648" x2="110.829" y2="596.074" gradientUnits="userSpaceOnUse" xlink:href="#linearGradient38420" id="linearGradient17477" gradientTransform="matrix(0 -0.705823 0.705823 0 -492.739 121.481)"></linearGradient><linearGradient id="linearGradient38420"><stop offset="0" stop-color="#285294"/><stop offset="1" stop-color="#2C5A9E"/></linearGradient></defs><g id="layer1" transform="translate(72.0192 34.9714)"><g id="shape305-1" fill="#FFFFFF" transform="matrix(0.705823 0 0 0.705823 -2.90073 -411.529)"><rect x="0" y="560.896" width="133.575" height="168.75" id="rect59" stroke-width="0.25"/></g><g id="shape6-3" fill="#2A5699" transform="matrix(0.705823 0 0 0.705823 -15.1904 -408.832)"><path d="M9.48 551.34C4.23 551.34 0 555.55 0 560.79L0 720.2C0 725.43 4.23 729.65 9.48 729.65L144.81 729.65C150.06 729.65 154.29 725.43 154.29 720.2L154.29 560.79C154.29 555.55 150.06 551.34 144.81 551.34ZM7.58 559.17 146.63 559.17 146.63 721.73 7.58 721.73Z" id="path64" stroke-width="0.683161" stroke-linecap="round" stroke-linejoin="round"/></g><g id="group14-5" fill="#2A5699" transform="matrix(0.705823 0 0 0.705823 8.09457 -425.626)"><g id="shape8-6" transform="matrix(1 0 0 1 0 -119.857)"><rect x="0" y="719.538" width="97.4164" height="10.1084" id="rect71" stroke-width="0.25"/></g><g id="shape9-8" transform="matrix(1 0 0 1 0 -72.2027)"><rect x="0" y="719.538" width="97.4164" height="10.1084" id="rect76" stroke-width="0.25"/></g><g id="shape10-10" transform="matrix(1 0 0 1 0 -96.0296)"><rect x="0" y="719.538" width="97.4164" height="10.1084" id="rect81" stroke-width="0.25"/></g><g id="shape11-12" transform="matrix(1 0 0 1 0 -48.3758)"><rect x="0" y="719.538" width="97.4164" height="10.1084" id="rect86" stroke-width="0.25"/></g><g id="shape12-14" transform="matrix(1 0 0 1 0 -23.8269)"><rect x="0" y="719.538" width="97.4164" height="10.1084" id="rect91" stroke-width="0.25"/></g><g id="shape13-16"><rect x="0" y="719.538" width="97.4164" height="10.1084" id="rect96" stroke-width="0.25"/></g></g><path d="M22.2646 121.481 22.2646-34.9714-72.0192-19.3304-72.0192 105.833Z" id="path439" stroke-width="0.176455" fill="url(#linearGradient17477)"/><g id="shape21-216" fill="#FFFFFF" transform="matrix(0.705823 0 0 0.705823 -55.7104 -446.476)"><path d="M0 660.6 13 726.7C17.6472 727.118 22.306 727.395 26.97 727.53L36.49 684.06C36.8852 682.68 37.0561 681.172 37.22 678.28 37.3989 681.196 37.5134 682.245 37.94 684.06L47.35 728.74 62.57 729.65 79.46 655.87 64.56 656.76 55.99 705.72C55.568 707.709 55.2739 709.717 55.27 711.49 55.416 710.027 55.1716 708.066 54.55 705.72L45.03 657.92 31.58 658.72 21.33 705.72C21.0565 706.643 20.7903 708.307 20.61 710.05 20.5403 708.552 20.3069 706.565 19.89 704.27L12.96 659.83Z" id="path550" stroke-width="0.75"/></g></g></svg>